<svg width="68" height="67" viewBox="0 0 68 67" fill="none" xmlns="http://www.w3.org/2000/svg">
<ellipse cx="33.6605" cy="33.4184" rx="33.6605" ry="33.4184" fill="url(#paint0_radial_817_201)"/>
<path d="M46.283 39.6002C46.283 44.1204 44.9531 48.4554 42.5859 51.6517C40.2187 54.848 37.008 56.6436 33.6603 56.6436C30.3125 56.6436 27.1019 54.848 24.7347 51.6517C22.3675 48.4555 21.0376 44.1204 21.0376 39.6002C29.3817 38.0538 37.9389 38.0538 46.283 39.6002Z" fill="#6A0000"/>
<path fill-rule="evenodd" clip-rule="evenodd" d="M39.9153 54.1836C38.0095 55.6735 35.8305 56.4776 33.5902 56.4776C31.3499 56.4776 29.171 55.6735 27.2651 54.1836C28.2079 51.6223 30.684 49.7939 33.5902 49.7939C36.4965 49.7939 38.9726 51.6223 39.9153 54.1836Z" fill="#A7090A"/>
<ellipse cx="15.1471" cy="30.7452" rx="8.41512" ry="5.01277" fill="url(#paint1_radial_817_201)"/>
<ellipse cx="53.857" cy="30.7452" rx="8.41512" ry="5.01277" fill="url(#paint2_radial_817_201)"/>
<path d="M13.6323 25.6945C15.2592 23.3273 19.9437 20.0133 25.666 25.6945" stroke="black" stroke-width="6" stroke-linecap="round"/>
<path d="M41.5708 25.6945C43.1977 23.3273 47.8821 20.0133 53.6044 25.6945" stroke="black" stroke-width="6" stroke-linecap="round"/>
<defs>
<radialGradient id="paint0_radial_817_201" cx="0" cy="0" r="1" gradientUnits="userSpaceOnUse" gradientTransform="translate(6.81625 47.6213) rotate(-25.8267) scale(59.8332 59.5668)">
<stop stop-color="#FDB642"/>
<stop offset="1" stop-color="#FFD742"/>
</radialGradient>
<radialGradient id="paint1_radial_817_201" cx="0" cy="0" r="1" gradientUnits="userSpaceOnUse" gradientTransform="translate(15.1471 30.7452) rotate(90) scale(5.01277 8.41512)">
<stop stop-color="#F9A755"/>
<stop offset="1" stop-color="#FCA756" stop-opacity="0"/>
</radialGradient>
<radialGradient id="paint2_radial_817_201" cx="0" cy="0" r="1" gradientUnits="userSpaceOnUse" gradientTransform="translate(53.857 30.7452) rotate(90) scale(5.01277 8.41512)">
<stop stop-color="#F9A755"/>
<stop offset="1" stop-color="#FCA756" stop-opacity="0"/>
</radialGradient>
</defs>
</svg>
