<svg width="69" height="67" viewBox="0 0 69 67" fill="none" xmlns="http://www.w3.org/2000/svg">
<ellipse cx="34.5" cy="33.4184" rx="33.6605" ry="33.4184" fill="url(#paint0_radial_443_187)"/>
<path d="M47.1227 39.6001C47.1227 44.1203 45.7928 48.4553 43.4256 51.6516C41.0584 54.8478 37.8477 56.6435 34.5 56.6435C31.1523 56.6435 27.9416 54.8478 25.5744 51.6516C23.2072 48.4553 21.8773 44.1203 21.8773 39.6001C30.2214 38.0537 38.7786 38.0537 47.1227 39.6001Z" fill="#6A0000"/>
<path fill-rule="evenodd" clip-rule="evenodd" d="M40.7546 54.1835C38.8488 55.6734 36.6698 56.4775 34.4295 56.4775C32.1892 56.4775 30.0103 55.6734 28.1045 54.1835C29.0472 51.6222 31.5234 49.7939 34.4296 49.7939C37.3358 49.7939 39.8118 51.6222 40.7546 54.1835Z" fill="#A7090A"/>
<ellipse cx="15.9868" cy="30.7452" rx="8.41512" ry="5.01277" fill="url(#paint1_radial_443_187)"/>
<ellipse cx="54.6961" cy="30.7452" rx="8.41512" ry="5.01277" fill="url(#paint2_radial_443_187)"/>
<ellipse cx="21.9615" cy="20.7198" rx="3.1136" ry="5.01277" fill="black"/>
<ellipse cx="46.8704" cy="20.7198" rx="3.1136" ry="5.01277" fill="black"/>
<defs>
<radialGradient id="paint0_radial_443_187" cx="0" cy="0" r="1" gradientUnits="userSpaceOnUse" gradientTransform="translate(7.65576 47.6213) rotate(-25.8267) scale(59.8332 59.5668)">
<stop stop-color="#FDB642"/>
<stop offset="1" stop-color="#FFD742"/>
</radialGradient>
<radialGradient id="paint1_radial_443_187" cx="0" cy="0" r="1" gradientUnits="userSpaceOnUse" gradientTransform="translate(15.9868 30.7452) rotate(90) scale(5.01277 8.41512)">
<stop stop-color="#F9A755"/>
<stop offset="1" stop-color="#FCA756" stop-opacity="0"/>
</radialGradient>
<radialGradient id="paint2_radial_443_187" cx="0" cy="0" r="1" gradientUnits="userSpaceOnUse" gradientTransform="translate(54.6961 30.7452) rotate(90) scale(5.01277 8.41512)">
<stop stop-color="#F9A755"/>
<stop offset="1" stop-color="#FCA756" stop-opacity="0"/>
</radialGradient>
</defs>
</svg>
