<svg width="842" height="596" viewBox="0 0 842 596" fill="none" xmlns="http://www.w3.org/2000/svg">
<g clip-path="url(#clip0_1547_435)">
<path d="M293.78 464.52L299 466.33C311.45 470.8 319.65 480.06 318.8 493.79C317.84 508.91 305.92 517.74 286.55 517.74C277.08 517.74 267.6 515.82 261.85 511.25C257.81 507.95 255.89 502.2 259.08 497.31C260.68 494.97 263.76 493.58 266.64 493.48C270.37 493.37 272.18 495.08 274.2 496.14C276.65 497.63 279.95 498.91 287.19 498.91C293.04 498.91 296.56 496.89 296.66 492.2C296.77 488.16 289.74 485.07 280.91 482.3C279.21 481.77 277.08 480.92 275.8 480.38C259.73 473.67 256.21 459.09 259.83 447.91C263.56 436.52 273.99 429.92 288.57 429.92C299.64 429.92 304.86 432.05 308.79 434.18C313.69 436.84 317.09 442.16 315.5 447.27C314.12 451.63 310.39 453.34 306.35 453.34C304.75 453.34 302.41 452.7 301.45 451.96C298.9 450.26 295.17 448.77 288.78 448.77C283.67 448.77 280.58 450.79 280.48 455.16C280.37 459.09 285.26 461.64 293.78 464.52ZM326.99 515.93V447.06C326.99 434.82 330.82 430.24 343.6 430.24H379.05C385.22 430.24 387.67 435.35 387.67 439.71C387.67 444.07 385.33 448.86 379.05 448.86H352C349.55 448.86 348.91 449.39 348.91 451.95V465.36H376.27C382.44 465.36 384.89 470.47 384.89 474.83C384.89 479.19 382.55 483.98 376.27 483.98H348.91V515.91H326.99V515.93ZM411.83 438.65C413.96 432.69 419.81 429.82 425.56 429.82C430.99 429.82 436.63 432.91 438.65 438.65L466.43 515.93H443.01L438.86 502.73H411.5L407.46 515.93H384.47L411.83 438.65ZM417.05 484.74H433.34L425.25 458.24L417.05 484.74ZM505.93 506.88L495.18 468.03L490.28 515.93H470.16L479.1 440.67C479.74 434.18 485.49 430.45 490.28 430.03C495.39 429.6 502.52 431.73 504.44 438.76L517.32 487.51L530.2 438.76C532.12 431.73 539.25 429.61 544.36 430.03C549.15 430.46 554.9 434.18 555.54 440.67L564.48 515.93H544.36L539.57 467.71L528.71 506.88C527.65 510.5 521.37 512.1 517.32 512.1C513.27 512.1 506.99 510.5 505.93 506.88Z" fill="url(#paint0_linear_1547_435)"/>
<path d="M387.431 222.019C388.351 221.739 389.281 221.409 390.231 221.019C406.121 214.449 415.441 204.629 420.801 193.929C416.001 189.699 410.811 185.889 405.301 182.569C404.911 188.529 403.201 196.569 397.311 201.459C397.681 203.959 397.601 206.569 396.981 209.179C395.641 214.819 392.071 219.329 387.431 222.019Z" fill="#FDCF00"/>
<path d="M456.71 273.42C456.71 246.59 446.73 222.09 430.29 203.42C429.76 204.43 429.18 205.44 428.55 206.42C399.12 252.19 395.94 232.46 392.14 260.8C389.13 283.21 437.49 303.14 429.46 344.36C446.39 325.58 456.71 300.7 456.71 273.42Z" fill="#FDCF00"/>
<path d="M406.401 320.81C403.031 317.21 399.231 314.44 396.011 311.44C382.431 298.78 364.431 308.02 357.741 317.11C347.761 330.67 342.721 337.42 333.781 352.07C328.461 360.79 323.851 368.3 319.851 374.78C329.631 377.76 340.001 379.36 350.751 379.36C375.361 379.36 398.011 370.97 416.001 356.89C417.361 344.97 416.031 331.11 406.401 320.81Z" fill="#F5C966"/>
<path d="M351.49 270.96C357.76 239.79 351.59 231.01 324.55 223.71C298.3 216.62 270.6 224.7 270.6 224.7C280.95 217.01 306.29 202.09 351.99 215.66C356.28 216.93 360.16 218.43 363.88 219.75C358.4 214.95 355.69 207.34 357.5 199.76C358.05 197.44 358.98 195.32 360.21 193.43C360.21 193.43 360.66 180.91 382.87 180.92C390.04 180.92 395.05 179.95 398.47 178.79C384.13 171.55 367.93 167.47 350.77 167.47C292.26 167.47 244.82 214.91 244.82 273.42C244.82 317.33 271.53 355 309.59 371.07C325.51 332.2 346.91 293.72 351.49 270.96Z" fill="#F5C966"/>
<path d="M474.67 190.67C459.4 190.67 444.91 194.02 431.89 200.01C430.98 202.2 429.87 204.35 428.54 206.42C399.11 252.19 395.93 232.46 392.13 260.8C388.44 288.27 461.94 312.02 414.13 375.82C431.09 388.26 452.02 395.61 474.67 395.61C531.26 395.61 577.14 349.73 577.14 293.14C577.14 236.55 531.26 190.67 474.67 190.67ZM501.45 278.72C505.32 297.95 528.65 335.37 536.13 366.68C536.13 366.68 531.95 360.83 512.38 328.75C506.87 319.71 503.76 315.55 497.6 307.18C493.47 301.57 482.37 295.87 473.99 303.68C472 305.53 469.66 307.24 467.58 309.46C454.73 323.2 465.83 347.2 465.83 347.2C430.4 304.96 478.73 289.92 476.38 272.44C474.03 254.96 472.07 267.13 453.92 238.89C443.55 222.76 455.16 199.43 455.16 199.43C454.26 210.54 450.64 236.77 477.55 247.9C478.14 248.14 478.71 248.35 479.28 248.52C476.42 246.86 474.22 244.07 473.39 240.6C473.01 238.99 472.95 237.38 473.19 235.84C466.87 230.59 468.35 219.44 468.35 219.44C468.35 219.44 471.08 223.17 482.11 223.17C495.81 223.17 496.09 230.89 496.09 230.89C496.85 232.06 497.42 233.37 497.76 234.79C498.88 239.47 497.21 244.16 493.82 247.12C496.11 246.3 498.51 245.38 501.15 244.6C529.34 236.23 544.97 245.43 551.36 250.18C551.36 250.18 534.27 245.2 518.08 249.57C501.39 254.07 497.58 259.49 501.45 278.72Z" fill="#69BF99"/>
<path d="M453.92 238.9C443.55 222.77 455.16 199.44 455.16 199.44C454.26 210.55 450.64 236.78 477.55 247.91C478.14 248.15 478.71 248.36 479.28 248.53C476.42 246.87 474.22 244.08 473.39 240.61C473.01 239 472.95 237.39 473.19 235.85C466.87 230.6 468.35 219.45 468.35 219.45C468.35 219.45 471.08 223.18 482.11 223.18C495.81 223.18 496.09 230.9 496.09 230.9C496.85 232.07 497.42 233.38 497.76 234.8C498.64 238.5 497.78 242.21 495.7 245.06C517.1 227.8 530.8 201.36 530.8 171.72C530.8 119.7 488.63 77.54 436.62 77.54C384.6 77.54 342.44 119.71 342.44 171.72C342.44 187.78 346.47 202.91 353.56 216.14C357.24 217.3 360.63 218.59 363.89 219.75C358.41 214.95 355.7 207.34 357.51 199.76C358.06 197.44 358.99 195.32 360.22 193.43C360.22 193.43 360.67 180.91 382.88 180.92C400.76 180.93 405.19 174.88 405.19 174.88C405.19 174.88 407.59 192.96 397.34 201.47C397.71 203.97 397.63 206.58 397.01 209.19C395.67 214.82 392.1 219.33 387.46 222.02C388.38 221.74 389.31 221.41 390.26 221.02C433.89 202.98 428.01 160.47 426.56 142.45C426.56 142.45 445.38 180.28 428.57 206.42C401.34 248.77 396.58 235.05 393.01 255.21C406.05 262.04 420.89 265.91 436.63 265.91C448.7 265.91 460.25 263.64 470.85 259.5C467.75 256.81 462.75 252.64 453.92 238.9Z" fill="#E2764C"/>
</g>
<defs>
<linearGradient id="paint0_linear_1547_435" x1="257.474" y1="473.78" x2="564.473" y2="473.78" gradientUnits="userSpaceOnUse">
<stop stop-color="#E2764C"/>
<stop offset="0.5129" stop-color="#F5C966"/>
<stop offset="0.9976" stop-color="#69BF99"/>
</linearGradient>
<clipPath id="clip0_1547_435">
<rect width="841.89" height="595.28" fill="white"/>
</clipPath>
</defs>
</svg>
